<mxfile host="app.diagrams.net" modified="2021-04-21T03:38:04.080Z" agent="5.0 (Windows NT 10.0; Win64; x64) AppleWebKit/537.36 (KHTML, like Gecko) Chrome/90.0.4430.72 Safari/537.36" etag="YHRKW-xD92XKjPFabTg0" version="14.2.7" type="github" pages="3">
  <diagram id="aMCD4Aw-ChQ_OT-FSbTn" name="第 1 页">
    <mxGraphModel dx="1422" dy="794" grid="1" gridSize="10" guides="1" tooltips="1" connect="1" arrows="1" fold="1" page="1" pageScale="1" pageWidth="827" pageHeight="1169" math="0" shadow="0">
      <root>
        <mxCell id="0" />
        <mxCell id="1" parent="0" />
        <mxCell id="R5REeeKI7JoDwIsablli-5" value="&lt;b&gt;控制台/API2.0&lt;/b&gt;" style="rounded=1;whiteSpace=wrap;html=1;fillColor=#b1ddf0;strokeColor=#10739e;" parent="1" vertex="1">
          <mxGeometry x="269" y="50" width="471" height="30" as="geometry" />
        </mxCell>
        <mxCell id="R5REeeKI7JoDwIsablli-103" style="edgeStyle=orthogonalEdgeStyle;curved=1;rounded=0;orthogonalLoop=1;jettySize=auto;html=1;exitX=1;exitY=0.5;exitDx=0;exitDy=0;" parent="1" source="R5REeeKI7JoDwIsablli-2" target="R5REeeKI7JoDwIsablli-9" edge="1">
          <mxGeometry relative="1" as="geometry" />
        </mxCell>
        <mxCell id="R5REeeKI7JoDwIsablli-106" style="edgeStyle=orthogonalEdgeStyle;curved=1;rounded=0;orthogonalLoop=1;jettySize=auto;html=1;exitX=0;exitY=0.5;exitDx=0;exitDy=0;entryX=0.5;entryY=0;entryDx=0;entryDy=0;" parent="1" source="R5REeeKI7JoDwIsablli-2" target="R5REeeKI7JoDwIsablli-88" edge="1">
          <mxGeometry relative="1" as="geometry" />
        </mxCell>
        <mxCell id="R5REeeKI7JoDwIsablli-2" value="域名配置接口server" style="rounded=0;whiteSpace=wrap;html=1;fillColor=#d5e8d4;strokeColor=#82b366;" parent="1" vertex="1">
          <mxGeometry x="280" y="130" width="120" height="60" as="geometry" />
        </mxCell>
        <mxCell id="R5REeeKI7JoDwIsablli-101" style="edgeStyle=orthogonalEdgeStyle;curved=1;rounded=0;orthogonalLoop=1;jettySize=auto;html=1;exitX=1;exitY=0.5;exitDx=0;exitDy=0;" parent="1" source="R5REeeKI7JoDwIsablli-7" edge="1">
          <mxGeometry relative="1" as="geometry">
            <mxPoint x="430" y="310" as="targetPoint" />
          </mxGeometry>
        </mxCell>
        <mxCell id="R5REeeKI7JoDwIsablli-104" style="edgeStyle=orthogonalEdgeStyle;curved=1;rounded=0;orthogonalLoop=1;jettySize=auto;html=1;exitX=0.5;exitY=0;exitDx=0;exitDy=0;entryX=0.5;entryY=1;entryDx=0;entryDy=0;" parent="1" source="R5REeeKI7JoDwIsablli-7" target="R5REeeKI7JoDwIsablli-2" edge="1">
          <mxGeometry relative="1" as="geometry" />
        </mxCell>
        <mxCell id="R5REeeKI7JoDwIsablli-7" value="配置异步服务" style="rounded=0;whiteSpace=wrap;html=1;fillColor=#d5e8d4;strokeColor=#82b366;" parent="1" vertex="1">
          <mxGeometry x="277" y="370" width="126" height="60" as="geometry" />
        </mxCell>
        <mxCell id="R5REeeKI7JoDwIsablli-9" value="" style="outlineConnect=0;dashed=0;verticalLabelPosition=bottom;verticalAlign=top;align=center;html=1;shape=mxgraph.aws3.mysql_db_instance_2;fillColor=#2E73B8;gradientColor=none;" parent="1" vertex="1">
          <mxGeometry x="400" y="240" width="60" height="63" as="geometry" />
        </mxCell>
        <mxCell id="R5REeeKI7JoDwIsablli-107" style="edgeStyle=orthogonalEdgeStyle;curved=1;rounded=0;orthogonalLoop=1;jettySize=auto;html=1;exitX=0.5;exitY=1;exitDx=0;exitDy=0;entryX=0.5;entryY=0;entryDx=0;entryDy=0;entryPerimeter=0;" parent="1" source="R5REeeKI7JoDwIsablli-74" target="R5REeeKI7JoDwIsablli-97" edge="1">
          <mxGeometry relative="1" as="geometry" />
        </mxCell>
        <mxCell id="R5REeeKI7JoDwIsablli-74" value="刷新服务" style="rounded=0;whiteSpace=wrap;html=1;fillColor=#d5e8d4;strokeColor=#82b366;" parent="1" vertex="1">
          <mxGeometry x="460" y="130" width="120" height="60" as="geometry" />
        </mxCell>
        <mxCell id="R5REeeKI7JoDwIsablli-109" style="edgeStyle=orthogonalEdgeStyle;curved=1;rounded=0;orthogonalLoop=1;jettySize=auto;html=1;exitX=0.5;exitY=1;exitDx=0;exitDy=0;entryX=0.5;entryY=0;entryDx=0;entryDy=0;entryPerimeter=0;" parent="1" source="R5REeeKI7JoDwIsablli-80" target="R5REeeKI7JoDwIsablli-98" edge="1">
          <mxGeometry relative="1" as="geometry" />
        </mxCell>
        <mxCell id="R5REeeKI7JoDwIsablli-80" value="数据查询" style="rounded=0;whiteSpace=wrap;html=1;fillColor=#d5e8d4;strokeColor=#82b366;" parent="1" vertex="1">
          <mxGeometry x="630" y="130" width="120" height="60" as="geometry" />
        </mxCell>
        <mxCell id="R5REeeKI7JoDwIsablli-108" style="edgeStyle=orthogonalEdgeStyle;curved=1;rounded=0;orthogonalLoop=1;jettySize=auto;html=1;exitX=0.5;exitY=0;exitDx=0;exitDy=0;entryX=0.5;entryY=1;entryDx=0;entryDy=0;entryPerimeter=0;" parent="1" source="R5REeeKI7JoDwIsablli-81" target="R5REeeKI7JoDwIsablli-97" edge="1">
          <mxGeometry relative="1" as="geometry" />
        </mxCell>
        <mxCell id="R5REeeKI7JoDwIsablli-81" value="刷新异步服务" style="rounded=0;whiteSpace=wrap;html=1;fillColor=#d5e8d4;strokeColor=#82b366;" parent="1" vertex="1">
          <mxGeometry x="457" y="370" width="126" height="60" as="geometry" />
        </mxCell>
        <mxCell id="R5REeeKI7JoDwIsablli-110" style="edgeStyle=orthogonalEdgeStyle;curved=1;rounded=0;orthogonalLoop=1;jettySize=auto;html=1;exitX=0.5;exitY=0;exitDx=0;exitDy=0;entryX=0.5;entryY=1;entryDx=0;entryDy=0;entryPerimeter=0;" parent="1" source="R5REeeKI7JoDwIsablli-82" target="R5REeeKI7JoDwIsablli-98" edge="1">
          <mxGeometry relative="1" as="geometry" />
        </mxCell>
        <mxCell id="R5REeeKI7JoDwIsablli-82" value="数据汇总异步服务" style="rounded=0;whiteSpace=wrap;html=1;fillColor=#d5e8d4;strokeColor=#82b366;" parent="1" vertex="1">
          <mxGeometry x="627" y="370" width="126" height="60" as="geometry" />
        </mxCell>
        <mxCell id="R5REeeKI7JoDwIsablli-88" value="动态平台" style="rounded=0;whiteSpace=wrap;html=1;fillColor=#dae8fc;strokeColor=#6c8ebf;" parent="1" vertex="1">
          <mxGeometry x="150" y="200" width="50" height="60" as="geometry" />
        </mxCell>
        <mxCell id="R5REeeKI7JoDwIsablli-89" value="静态平台" style="rounded=0;whiteSpace=wrap;html=1;fillColor=#dae8fc;strokeColor=#6c8ebf;" parent="1" vertex="1">
          <mxGeometry x="150" y="360" width="50" height="60" as="geometry" />
        </mxCell>
        <mxCell id="R5REeeKI7JoDwIsablli-90" value="域名解析" style="rounded=0;whiteSpace=wrap;html=1;fillColor=#dae8fc;strokeColor=#6c8ebf;" parent="1" vertex="1">
          <mxGeometry x="150" y="280" width="50" height="60" as="geometry" />
        </mxCell>
        <mxCell id="R5REeeKI7JoDwIsablli-97" value="" style="outlineConnect=0;dashed=0;verticalLabelPosition=bottom;verticalAlign=top;align=center;html=1;shape=mxgraph.aws3.mysql_db_instance_2;fillColor=#2E73B8;gradientColor=none;" parent="1" vertex="1">
          <mxGeometry x="490" y="240" width="60" height="63" as="geometry" />
        </mxCell>
        <mxCell id="R5REeeKI7JoDwIsablli-98" value="" style="outlineConnect=0;dashed=0;verticalLabelPosition=bottom;verticalAlign=top;align=center;html=1;shape=mxgraph.aws3.mysql_db_instance_2;fillColor=#2E73B8;gradientColor=none;" parent="1" vertex="1">
          <mxGeometry x="660" y="240" width="60" height="63" as="geometry" />
        </mxCell>
        <mxCell id="R5REeeKI7JoDwIsablli-111" value="&lt;b&gt;异步服务监控保活&lt;/b&gt;" style="rounded=1;whiteSpace=wrap;html=1;fillColor=#ffe6cc;strokeColor=#d79b00;" parent="1" vertex="1">
          <mxGeometry x="260" y="470" width="500" height="30" as="geometry" />
        </mxCell>
      </root>
    </mxGraphModel>
  </diagram>
  <diagram name="Page-1" id="2jPCHthF1zQMfmEpw7Se">
    <mxGraphModel dx="1038" dy="491" grid="1" gridSize="10" guides="1" tooltips="1" connect="1" arrows="1" fold="1" page="1" pageScale="1" pageWidth="850" pageHeight="1100" math="0" shadow="0">
      <root>
        <mxCell id="0" />
        <mxCell id="1" parent="0" />
        <mxCell id="9bviaBdnoz7ASgs0EKmV-1" style="edgeStyle=orthogonalEdgeStyle;rounded=0;orthogonalLoop=1;jettySize=auto;html=1;exitX=1;exitY=0.5;exitDx=0;exitDy=0;entryX=0;entryY=0.5;entryDx=0;entryDy=0;" edge="1" parent="1" source="9bviaBdnoz7ASgs0EKmV-2" target="9bviaBdnoz7ASgs0EKmV-4">
          <mxGeometry relative="1" as="geometry" />
        </mxCell>
        <mxCell id="9bviaBdnoz7ASgs0EKmV-2" value="API3.0" style="rounded=1;whiteSpace=wrap;html=1;" vertex="1" parent="1">
          <mxGeometry x="170" y="460" width="80" height="40" as="geometry" />
        </mxCell>
        <mxCell id="9bviaBdnoz7ASgs0EKmV-3" style="edgeStyle=orthogonalEdgeStyle;rounded=0;orthogonalLoop=1;jettySize=auto;html=1;entryX=0;entryY=0.5;entryDx=0;entryDy=0;" edge="1" parent="1" source="9bviaBdnoz7ASgs0EKmV-4" target="9bviaBdnoz7ASgs0EKmV-6">
          <mxGeometry relative="1" as="geometry" />
        </mxCell>
        <mxCell id="9bviaBdnoz7ASgs0EKmV-4" value="TDSQL" style="shape=cylinder;whiteSpace=wrap;html=1;boundedLbl=1;backgroundOutline=1;" vertex="1" parent="1">
          <mxGeometry x="310" y="440" width="60" height="80" as="geometry" />
        </mxCell>
        <mxCell id="9bviaBdnoz7ASgs0EKmV-5" style="edgeStyle=orthogonalEdgeStyle;rounded=0;orthogonalLoop=1;jettySize=auto;html=1;exitX=1;exitY=0.5;exitDx=0;exitDy=0;" edge="1" parent="1" source="9bviaBdnoz7ASgs0EKmV-6" target="9bviaBdnoz7ASgs0EKmV-9">
          <mxGeometry relative="1" as="geometry" />
        </mxCell>
        <mxCell id="9bviaBdnoz7ASgs0EKmV-6" value="task_enqueue" style="rounded=1;whiteSpace=wrap;html=1;" vertex="1" parent="1">
          <mxGeometry x="410" y="460" width="90" height="40" as="geometry" />
        </mxCell>
        <mxCell id="9bviaBdnoz7ASgs0EKmV-7" style="edgeStyle=orthogonalEdgeStyle;rounded=0;orthogonalLoop=1;jettySize=auto;html=1;" edge="1" parent="1" source="9bviaBdnoz7ASgs0EKmV-9" target="9bviaBdnoz7ASgs0EKmV-11">
          <mxGeometry relative="1" as="geometry" />
        </mxCell>
        <mxCell id="9bviaBdnoz7ASgs0EKmV-8" value="topic: #" style="edgeStyle=orthogonalEdgeStyle;rounded=0;orthogonalLoop=1;jettySize=auto;html=1;entryX=1;entryY=0.5;entryDx=0;entryDy=0;" edge="1" parent="1" source="9bviaBdnoz7ASgs0EKmV-9" target="9bviaBdnoz7ASgs0EKmV-14">
          <mxGeometry relative="1" as="geometry" />
        </mxCell>
        <mxCell id="9bviaBdnoz7ASgs0EKmV-9" value="rabbitmq&lt;br&gt;exchange: &lt;br&gt;customer_xchg" style="outlineConnect=0;fontColor=#232F3E;gradientColor=none;strokeColor=#232F3E;fillColor=#ffffff;dashed=0;verticalLabelPosition=top;verticalAlign=bottom;align=center;html=1;fontSize=12;fontStyle=0;aspect=fixed;shape=mxgraph.aws4.resourceIcon;resIcon=mxgraph.aws4.message;labelPosition=center;" vertex="1" parent="1">
          <mxGeometry x="535" y="450" width="60" height="60" as="geometry" />
        </mxCell>
        <mxCell id="9bviaBdnoz7ASgs0EKmV-10" style="edgeStyle=orthogonalEdgeStyle;rounded=1;jumpStyle=arc;orthogonalLoop=1;jettySize=auto;html=1;endArrow=open;endFill=0;" edge="1" parent="1" source="9bviaBdnoz7ASgs0EKmV-11" target="9bviaBdnoz7ASgs0EKmV-57">
          <mxGeometry relative="1" as="geometry" />
        </mxCell>
        <mxCell id="9bviaBdnoz7ASgs0EKmV-11" value="task_multiplex" style="rounded=1;whiteSpace=wrap;html=1;" vertex="1" parent="1">
          <mxGeometry x="660" y="455" width="80" height="50" as="geometry" />
        </mxCell>
        <mxCell id="9bviaBdnoz7ASgs0EKmV-12" value="ElasticSearch" style="ellipse;whiteSpace=wrap;html=1;" vertex="1" parent="1">
          <mxGeometry x="350" y="590" width="80" height="60" as="geometry" />
        </mxCell>
        <mxCell id="9bviaBdnoz7ASgs0EKmV-13" style="edgeStyle=orthogonalEdgeStyle;rounded=0;orthogonalLoop=1;jettySize=auto;html=1;" edge="1" parent="1" source="9bviaBdnoz7ASgs0EKmV-14" target="9bviaBdnoz7ASgs0EKmV-12">
          <mxGeometry relative="1" as="geometry" />
        </mxCell>
        <mxCell id="9bviaBdnoz7ASgs0EKmV-14" value="push_all_tasks" style="rounded=1;whiteSpace=wrap;html=1;" vertex="1" parent="1">
          <mxGeometry x="460" y="590" width="80" height="60" as="geometry" />
        </mxCell>
        <mxCell id="9bviaBdnoz7ASgs0EKmV-15" style="edgeStyle=orthogonalEdgeStyle;rounded=0;orthogonalLoop=1;jettySize=auto;html=1;exitX=0.5;exitY=0;exitDx=0;exitDy=0;entryX=0.25;entryY=1;entryDx=0;entryDy=0;" edge="1" parent="1" source="9bviaBdnoz7ASgs0EKmV-16" target="9bviaBdnoz7ASgs0EKmV-11">
          <mxGeometry relative="1" as="geometry" />
        </mxCell>
        <mxCell id="9bviaBdnoz7ASgs0EKmV-16" value="CDN&lt;br&gt;IP_DB" style="shape=cylinder;whiteSpace=wrap;html=1;boundedLbl=1;backgroundOutline=1;" vertex="1" parent="1">
          <mxGeometry x="650" y="570" width="60" height="70" as="geometry" />
        </mxCell>
        <mxCell id="9bviaBdnoz7ASgs0EKmV-17" style="edgeStyle=orthogonalEdgeStyle;rounded=0;orthogonalLoop=1;jettySize=auto;html=1;exitX=0.5;exitY=0;exitDx=0;exitDy=0;entryX=0.5;entryY=1;entryDx=0;entryDy=0;" edge="1" parent="1" source="9bviaBdnoz7ASgs0EKmV-18" target="9bviaBdnoz7ASgs0EKmV-11">
          <mxGeometry relative="1" as="geometry" />
        </mxCell>
        <mxCell id="9bviaBdnoz7ASgs0EKmV-18" value="TEG &lt;br&gt;Platform IP API" style="ellipse;whiteSpace=wrap;html=1;" vertex="1" parent="1">
          <mxGeometry x="730" y="580" width="100" height="50" as="geometry" />
        </mxCell>
        <mxCell id="9bviaBdnoz7ASgs0EKmV-19" style="edgeStyle=orthogonalEdgeStyle;rounded=0;orthogonalLoop=1;jettySize=auto;html=1;exitX=1;exitY=0.5;exitDx=0;exitDy=0;entryX=0;entryY=0.5;entryDx=0;entryDy=0;" edge="1" parent="1" source="9bviaBdnoz7ASgs0EKmV-23" target="9bviaBdnoz7ASgs0EKmV-26">
          <mxGeometry relative="1" as="geometry" />
        </mxCell>
        <mxCell id="9bviaBdnoz7ASgs0EKmV-20" value="whitelist:&lt;br&gt;app_id + pid + service_type" style="text;html=1;resizable=0;points=[];align=center;verticalAlign=middle;labelBackgroundColor=#ffffff;" vertex="1" connectable="0" parent="9bviaBdnoz7ASgs0EKmV-19">
          <mxGeometry x="0.5387" y="2" relative="1" as="geometry">
            <mxPoint x="-45" y="-18" as="offset" />
          </mxGeometry>
        </mxCell>
        <mxCell id="9bviaBdnoz7ASgs0EKmV-21" style="edgeStyle=orthogonalEdgeStyle;rounded=0;orthogonalLoop=1;jettySize=auto;html=1;exitX=1;exitY=0.5;exitDx=0;exitDy=0;" edge="1" parent="1" source="9bviaBdnoz7ASgs0EKmV-23" target="9bviaBdnoz7ASgs0EKmV-28">
          <mxGeometry relative="1" as="geometry">
            <Array as="points">
              <mxPoint x="1010" y="480" />
              <mxPoint x="1010" y="500" />
            </Array>
          </mxGeometry>
        </mxCell>
        <mxCell id="9bviaBdnoz7ASgs0EKmV-22" value="task_type: realtime&lt;br&gt;or&lt;br&gt;callback_url is not null" style="edgeStyle=orthogonalEdgeStyle;rounded=0;orthogonalLoop=1;jettySize=auto;html=1;exitX=1;exitY=0.5;exitDx=0;exitDy=0;entryX=0;entryY=0.7;entryDx=0;entryDy=0;" edge="1" parent="1" source="9bviaBdnoz7ASgs0EKmV-23" target="9bviaBdnoz7ASgs0EKmV-31">
          <mxGeometry relative="1" as="geometry">
            <Array as="points">
              <mxPoint x="1010" y="480" />
              <mxPoint x="1010" y="612" />
            </Array>
          </mxGeometry>
        </mxCell>
        <mxCell id="9bviaBdnoz7ASgs0EKmV-23" value="task_submit" style="rounded=1;whiteSpace=wrap;html=1;" vertex="1" parent="1">
          <mxGeometry x="900" y="460" width="70" height="40" as="geometry" />
        </mxCell>
        <mxCell id="9bviaBdnoz7ASgs0EKmV-24" style="edgeStyle=orthogonalEdgeStyle;rounded=1;jumpStyle=arc;orthogonalLoop=1;jettySize=auto;html=1;exitX=1;exitY=0.5;exitDx=0;exitDy=0;entryX=0.5;entryY=1;entryDx=0;entryDy=0;endArrow=open;endFill=0;" edge="1" parent="1" source="9bviaBdnoz7ASgs0EKmV-26" target="9bviaBdnoz7ASgs0EKmV-37">
          <mxGeometry relative="1" as="geometry" />
        </mxCell>
        <mxCell id="9bviaBdnoz7ASgs0EKmV-25" style="edgeStyle=orthogonalEdgeStyle;rounded=1;jumpStyle=arc;orthogonalLoop=1;jettySize=auto;html=1;exitX=1;exitY=0.75;exitDx=0;exitDy=0;endArrow=open;endFill=0;" edge="1" parent="1" source="9bviaBdnoz7ASgs0EKmV-26" target="9bviaBdnoz7ASgs0EKmV-48">
          <mxGeometry relative="1" as="geometry" />
        </mxCell>
        <mxCell id="9bviaBdnoz7ASgs0EKmV-26" value="TEG API" style="rounded=1;whiteSpace=wrap;html=1;" vertex="1" parent="1">
          <mxGeometry x="1050" y="410" width="100" height="30" as="geometry" />
        </mxCell>
        <mxCell id="9bviaBdnoz7ASgs0EKmV-27" style="edgeStyle=orthogonalEdgeStyle;rounded=1;jumpStyle=arc;orthogonalLoop=1;jettySize=auto;html=1;exitX=1;exitY=0.5;exitDx=0;exitDy=0;entryX=1;entryY=0.7;entryDx=0;entryDy=0;endArrow=open;endFill=0;" edge="1" parent="1" source="9bviaBdnoz7ASgs0EKmV-28" target="9bviaBdnoz7ASgs0EKmV-37">
          <mxGeometry relative="1" as="geometry">
            <Array as="points">
              <mxPoint x="1180" y="500" />
              <mxPoint x="1180" y="322" />
            </Array>
          </mxGeometry>
        </mxCell>
        <mxCell id="9bviaBdnoz7ASgs0EKmV-28" value="CLOUD" style="rounded=1;whiteSpace=wrap;html=1;" vertex="1" parent="1">
          <mxGeometry x="1060" y="485" width="100" height="30" as="geometry" />
        </mxCell>
        <mxCell id="9bviaBdnoz7ASgs0EKmV-29" style="edgeStyle=orthogonalEdgeStyle;rounded=1;jumpStyle=arc;orthogonalLoop=1;jettySize=auto;html=1;exitX=1;exitY=0.5;exitDx=0;exitDy=0;entryX=0;entryY=0.5;entryDx=0;entryDy=0;endArrow=open;endFill=0;" edge="1" parent="1" source="9bviaBdnoz7ASgs0EKmV-31" target="9bviaBdnoz7ASgs0EKmV-46">
          <mxGeometry relative="1" as="geometry" />
        </mxCell>
        <mxCell id="9bviaBdnoz7ASgs0EKmV-30" style="edgeStyle=orthogonalEdgeStyle;rounded=1;jumpStyle=arc;orthogonalLoop=1;jettySize=auto;html=1;exitX=0.5;exitY=1;exitDx=0;exitDy=0;entryX=1;entryY=0.5;entryDx=0;entryDy=0;endArrow=open;endFill=0;" edge="1" parent="1" source="9bviaBdnoz7ASgs0EKmV-31" target="9bviaBdnoz7ASgs0EKmV-55">
          <mxGeometry relative="1" as="geometry" />
        </mxCell>
        <mxCell id="9bviaBdnoz7ASgs0EKmV-31" value="Redis-Queue" style="shape=cylinder;whiteSpace=wrap;html=1;boundedLbl=1;backgroundOutline=1;" vertex="1" parent="1">
          <mxGeometry x="1080" y="570" width="60" height="60" as="geometry" />
        </mxCell>
        <mxCell id="9bviaBdnoz7ASgs0EKmV-32" style="edgeStyle=orthogonalEdgeStyle;rounded=0;orthogonalLoop=1;jettySize=auto;html=1;exitX=0;exitY=0.25;exitDx=0;exitDy=0;entryX=0.5;entryY=0;entryDx=0;entryDy=0;" edge="1" parent="1" source="9bviaBdnoz7ASgs0EKmV-33" target="9bviaBdnoz7ASgs0EKmV-4">
          <mxGeometry relative="1" as="geometry" />
        </mxCell>
        <mxCell id="9bviaBdnoz7ASgs0EKmV-33" value="task_status_update_cloud" style="rounded=1;whiteSpace=wrap;html=1;" vertex="1" parent="1">
          <mxGeometry x="595" y="240" width="150" height="20" as="geometry" />
        </mxCell>
        <mxCell id="9bviaBdnoz7ASgs0EKmV-34" value="poll" style="edgeStyle=orthogonalEdgeStyle;rounded=0;orthogonalLoop=1;jettySize=auto;html=1;exitX=1;exitY=0.5;exitDx=0;exitDy=0;entryX=0;entryY=0.3;entryDx=0;entryDy=0;" edge="1" parent="1" source="9bviaBdnoz7ASgs0EKmV-40" target="9bviaBdnoz7ASgs0EKmV-37">
          <mxGeometry x="0.3452" y="8" relative="1" as="geometry">
            <mxPoint as="offset" />
          </mxGeometry>
        </mxCell>
        <mxCell id="9bviaBdnoz7ASgs0EKmV-35" style="edgeStyle=orthogonalEdgeStyle;rounded=1;jumpStyle=arc;orthogonalLoop=1;jettySize=auto;html=1;exitX=1;exitY=0.5;exitDx=0;exitDy=0;entryX=0.5;entryY=0;entryDx=0;entryDy=0;endArrow=open;endFill=0;" edge="1" parent="1" source="9bviaBdnoz7ASgs0EKmV-33" target="9bviaBdnoz7ASgs0EKmV-37">
          <mxGeometry relative="1" as="geometry" />
        </mxCell>
        <mxCell id="9bviaBdnoz7ASgs0EKmV-36" value="poll" style="text;html=1;resizable=0;points=[];align=center;verticalAlign=middle;labelBackgroundColor=#ffffff;" vertex="1" connectable="0" parent="9bviaBdnoz7ASgs0EKmV-35">
          <mxGeometry x="0.5676" y="2" relative="1" as="geometry">
            <mxPoint y="-12" as="offset" />
          </mxGeometry>
        </mxCell>
        <mxCell id="9bviaBdnoz7ASgs0EKmV-37" value="Redis-Status" style="shape=cylinder;whiteSpace=wrap;html=1;boundedLbl=1;backgroundOutline=1;" vertex="1" parent="1">
          <mxGeometry x="1080" y="280" width="60" height="60" as="geometry" />
        </mxCell>
        <mxCell id="9bviaBdnoz7ASgs0EKmV-38" style="edgeStyle=orthogonalEdgeStyle;rounded=0;orthogonalLoop=1;jettySize=auto;html=1;exitX=0;exitY=0.5;exitDx=0;exitDy=0;entryX=0.85;entryY=0.05;entryDx=0;entryDy=0;entryPerimeter=0;" edge="1" parent="1" source="9bviaBdnoz7ASgs0EKmV-40" target="9bviaBdnoz7ASgs0EKmV-4">
          <mxGeometry relative="1" as="geometry" />
        </mxCell>
        <mxCell id="9bviaBdnoz7ASgs0EKmV-39" style="edgeStyle=orthogonalEdgeStyle;rounded=1;jumpStyle=arc;orthogonalLoop=1;jettySize=auto;html=1;exitX=0.5;exitY=1;exitDx=0;exitDy=0;endArrow=open;endFill=0;" edge="1" parent="1" source="9bviaBdnoz7ASgs0EKmV-40" target="9bviaBdnoz7ASgs0EKmV-58">
          <mxGeometry relative="1" as="geometry" />
        </mxCell>
        <mxCell id="9bviaBdnoz7ASgs0EKmV-40" value="task_status_update_cloud" style="rounded=1;whiteSpace=wrap;html=1;" vertex="1" parent="1">
          <mxGeometry x="595" y="287" width="150" height="23" as="geometry" />
        </mxCell>
        <mxCell id="9bviaBdnoz7ASgs0EKmV-41" style="edgeStyle=orthogonalEdgeStyle;rounded=1;jumpStyle=arc;orthogonalLoop=1;jettySize=auto;html=1;exitX=0;exitY=0.5;exitDx=0;exitDy=0;entryX=1;entryY=0.5;entryDx=0;entryDy=0;endArrow=open;endFill=0;" edge="1" parent="1" source="9bviaBdnoz7ASgs0EKmV-42" target="9bviaBdnoz7ASgs0EKmV-37">
          <mxGeometry relative="1" as="geometry" />
        </mxCell>
        <mxCell id="9bviaBdnoz7ASgs0EKmV-42" value="pull_status_from_teg" style="rounded=1;whiteSpace=wrap;html=1;" vertex="1" parent="1">
          <mxGeometry x="1170" y="270" width="128" height="20" as="geometry" />
        </mxCell>
        <mxCell id="9bviaBdnoz7ASgs0EKmV-43" style="edgeStyle=orthogonalEdgeStyle;rounded=1;jumpStyle=arc;orthogonalLoop=1;jettySize=auto;html=1;exitX=0;exitY=0.5;exitDx=0;exitDy=0;endArrow=open;endFill=0;entryX=1;entryY=0.5;entryDx=0;entryDy=0;" edge="1" parent="1" source="9bviaBdnoz7ASgs0EKmV-44" target="9bviaBdnoz7ASgs0EKmV-42">
          <mxGeometry relative="1" as="geometry" />
        </mxCell>
        <mxCell id="9bviaBdnoz7ASgs0EKmV-44" value="kafka" style="rounded=1;whiteSpace=wrap;html=1;" vertex="1" parent="1">
          <mxGeometry x="1330" y="270" width="90" height="20" as="geometry" />
        </mxCell>
        <mxCell id="9bviaBdnoz7ASgs0EKmV-45" value="log" style="edgeStyle=orthogonalEdgeStyle;rounded=1;jumpStyle=arc;orthogonalLoop=1;jettySize=auto;html=1;entryX=1;entryY=0.5;entryDx=0;entryDy=0;endArrow=open;endFill=0;exitX=0.5;exitY=0;exitDx=0;exitDy=0;" edge="1" parent="1" source="9bviaBdnoz7ASgs0EKmV-52" target="9bviaBdnoz7ASgs0EKmV-44">
          <mxGeometry relative="1" as="geometry">
            <mxPoint x="1480" y="380" as="sourcePoint" />
          </mxGeometry>
        </mxCell>
        <mxCell id="9bviaBdnoz7ASgs0EKmV-46" value="rt_prefetch_agent&lt;br&gt;agent" style="rounded=1;whiteSpace=wrap;html=1;" vertex="1" parent="1">
          <mxGeometry x="1234" y="580" width="100" height="40" as="geometry" />
        </mxCell>
        <mxCell id="9bviaBdnoz7ASgs0EKmV-47" value="pull" style="edgeStyle=orthogonalEdgeStyle;rounded=1;jumpStyle=arc;orthogonalLoop=1;jettySize=auto;html=1;endArrow=open;endFill=0;entryX=1;entryY=0.5;entryDx=0;entryDy=0;" edge="1" parent="1" source="9bviaBdnoz7ASgs0EKmV-52" target="9bviaBdnoz7ASgs0EKmV-48">
          <mxGeometry relative="1" as="geometry" />
        </mxCell>
        <mxCell id="9bviaBdnoz7ASgs0EKmV-48" value="TEG&lt;br&gt;prefetch server" style="rounded=1;whiteSpace=wrap;html=1;" vertex="1" parent="1">
          <mxGeometry x="1244" y="410" width="86" height="40" as="geometry" />
        </mxCell>
        <mxCell id="9bviaBdnoz7ASgs0EKmV-49" value="oc" style="rounded=0;whiteSpace=wrap;html=1;fillColor=none;labelPosition=center;verticalLabelPosition=middle;align=center;verticalAlign=top;" vertex="1" parent="1">
          <mxGeometry x="1400" y="395" width="160" height="70" as="geometry" />
        </mxCell>
        <mxCell id="9bviaBdnoz7ASgs0EKmV-50" style="edgeStyle=orthogonalEdgeStyle;rounded=1;jumpStyle=arc;orthogonalLoop=1;jettySize=auto;html=1;exitX=1;exitY=0.5;exitDx=0;exitDy=0;entryX=0.5;entryY=1;entryDx=0;entryDy=0;endArrow=open;endFill=0;" edge="1" parent="1" source="9bviaBdnoz7ASgs0EKmV-46" target="9bviaBdnoz7ASgs0EKmV-53">
          <mxGeometry relative="1" as="geometry">
            <mxPoint x="1330" y="600" as="sourcePoint" />
            <mxPoint x="1495" y="460" as="targetPoint" />
          </mxGeometry>
        </mxCell>
        <mxCell id="9bviaBdnoz7ASgs0EKmV-51" style="edgeStyle=orthogonalEdgeStyle;rounded=1;jumpStyle=arc;orthogonalLoop=1;jettySize=auto;html=1;exitX=1;exitY=0.5;exitDx=0;exitDy=0;entryX=0;entryY=0.5;entryDx=0;entryDy=0;endArrow=open;endFill=0;" edge="1" parent="1" source="9bviaBdnoz7ASgs0EKmV-52" target="9bviaBdnoz7ASgs0EKmV-53">
          <mxGeometry relative="1" as="geometry" />
        </mxCell>
        <mxCell id="9bviaBdnoz7ASgs0EKmV-52" value="agent" style="rounded=1;whiteSpace=wrap;html=1;" vertex="1" parent="1">
          <mxGeometry x="1410" y="420" width="50" height="25" as="geometry" />
        </mxCell>
        <mxCell id="9bviaBdnoz7ASgs0EKmV-53" value="nws" style="rounded=1;whiteSpace=wrap;html=1;" vertex="1" parent="1">
          <mxGeometry x="1490" y="420" width="50" height="25" as="geometry" />
        </mxCell>
        <mxCell id="9bviaBdnoz7ASgs0EKmV-54" style="edgeStyle=orthogonalEdgeStyle;rounded=1;jumpStyle=arc;orthogonalLoop=1;jettySize=auto;html=1;exitX=0;exitY=0.5;exitDx=0;exitDy=0;entryX=0.5;entryY=1;entryDx=0;entryDy=0;endArrow=open;endFill=0;" edge="1" parent="1" source="9bviaBdnoz7ASgs0EKmV-55" target="9bviaBdnoz7ASgs0EKmV-4">
          <mxGeometry relative="1" as="geometry" />
        </mxCell>
        <mxCell id="9bviaBdnoz7ASgs0EKmV-55" value="&lt;span style=&quot;white-space: normal&quot;&gt;rt_prefetch_agent&lt;/span&gt;&lt;br style=&quot;white-space: normal&quot;&gt;status" style="rounded=1;whiteSpace=wrap;html=1;" vertex="1" parent="1">
          <mxGeometry x="910" y="650" width="100" height="40" as="geometry" />
        </mxCell>
        <mxCell id="9bviaBdnoz7ASgs0EKmV-56" style="edgeStyle=orthogonalEdgeStyle;rounded=1;jumpStyle=arc;orthogonalLoop=1;jettySize=auto;html=1;entryX=0;entryY=0.5;entryDx=0;entryDy=0;endArrow=open;endFill=0;" edge="1" parent="1" source="9bviaBdnoz7ASgs0EKmV-57" target="9bviaBdnoz7ASgs0EKmV-23">
          <mxGeometry relative="1" as="geometry" />
        </mxCell>
        <mxCell id="9bviaBdnoz7ASgs0EKmV-57" value="rabbitmq&lt;br&gt;exchange: &lt;br&gt;platform_xchg" style="outlineConnect=0;fontColor=#232F3E;gradientColor=none;strokeColor=#232F3E;fillColor=#ffffff;dashed=0;verticalLabelPosition=top;verticalAlign=bottom;align=center;html=1;fontSize=12;fontStyle=0;aspect=fixed;shape=mxgraph.aws4.resourceIcon;resIcon=mxgraph.aws4.message;labelPosition=center;" vertex="1" parent="1">
          <mxGeometry x="780" y="450" width="60" height="60" as="geometry" />
        </mxCell>
        <mxCell id="9bviaBdnoz7ASgs0EKmV-58" value="prefetch_log api&lt;br&gt;(legacy cloud prefetch server)" style="rounded=1;whiteSpace=wrap;html=1;" vertex="1" parent="1">
          <mxGeometry x="585" y="340" width="170" height="40" as="geometry" />
        </mxCell>
        <mxCell id="9bviaBdnoz7ASgs0EKmV-59" value="API2.0" style="rounded=1;whiteSpace=wrap;html=1;" vertex="1" parent="1">
          <mxGeometry x="160" y="585" width="80" height="40" as="geometry" />
        </mxCell>
      </root>
    </mxGraphModel>
  </diagram>
  <diagram name="概览" id="Y3bN2b2476DVIN4ZnhVy">
    <mxGraphModel dx="865" dy="409" grid="1" gridSize="10" guides="1" tooltips="1" connect="1" arrows="1" fold="1" page="1" pageScale="1" pageWidth="850" pageHeight="1100" math="0" shadow="0">
      <root>
        <mxCell id="WoJS6ypodgvgqW9EXtcD-0" />
        <mxCell id="WoJS6ypodgvgqW9EXtcD-1" parent="WoJS6ypodgvgqW9EXtcD-0" />
        <mxCell id="WoJS6ypodgvgqW9EXtcD-35" style="edgeStyle=orthogonalEdgeStyle;rounded=0;orthogonalLoop=1;jettySize=auto;html=1;exitX=1;exitY=0.5;exitDx=0;exitDy=0;strokeColor=#d6b656;fontColor=#FF0000;fillColor=#fff2cc;" edge="1" parent="WoJS6ypodgvgqW9EXtcD-1" source="WoJS6ypodgvgqW9EXtcD-3" target="WoJS6ypodgvgqW9EXtcD-19">
          <mxGeometry relative="1" as="geometry" />
        </mxCell>
        <mxCell id="WoJS6ypodgvgqW9EXtcD-3" value="Qcloud.Cdn.PushUrlAdapter&lt;br&gt;" style="rounded=0;whiteSpace=wrap;html=1;" vertex="1" parent="WoJS6ypodgvgqW9EXtcD-1">
          <mxGeometry x="260" y="190" width="180" height="30" as="geometry" />
        </mxCell>
        <mxCell id="WoJS6ypodgvgqW9EXtcD-62" style="edgeStyle=orthogonalEdgeStyle;rounded=0;orthogonalLoop=1;jettySize=auto;html=1;entryX=0.5;entryY=1;entryDx=0;entryDy=0;fillColor=#1ba1e2;strokeColor=#006EAF;" edge="1" parent="WoJS6ypodgvgqW9EXtcD-1" source="WoJS6ypodgvgqW9EXtcD-4" target="WoJS6ypodgvgqW9EXtcD-20">
          <mxGeometry relative="1" as="geometry" />
        </mxCell>
        <mxCell id="WoJS6ypodgvgqW9EXtcD-67" value="task_id转换" style="edgeStyle=orthogonalEdgeStyle;shape=link;rounded=0;orthogonalLoop=1;jettySize=auto;html=1;exitX=0.5;exitY=1;exitDx=0;exitDy=0;entryX=0;entryY=0.5;entryDx=0;entryDy=0;entryPerimeter=0;fillColor=#1ba1e2;strokeColor=#006EAF;" edge="1" parent="WoJS6ypodgvgqW9EXtcD-1" source="WoJS6ypodgvgqW9EXtcD-4" target="WoJS6ypodgvgqW9EXtcD-60">
          <mxGeometry x="0.1111" y="15" relative="1" as="geometry">
            <mxPoint as="offset" />
          </mxGeometry>
        </mxCell>
        <mxCell id="WoJS6ypodgvgqW9EXtcD-4" value="Qcloud.Cdn.GetPushLogAdapter" style="rounded=0;whiteSpace=wrap;html=1;" vertex="1" parent="WoJS6ypodgvgqW9EXtcD-1">
          <mxGeometry x="255" y="440" width="180" height="30" as="geometry" />
        </mxCell>
        <mxCell id="WoJS6ypodgvgqW9EXtcD-5" value="" style="endArrow=none;dashed=1;html=1;dashPattern=1 3;strokeWidth=2;" edge="1" parent="WoJS6ypodgvgqW9EXtcD-1">
          <mxGeometry width="50" height="50" relative="1" as="geometry">
            <mxPoint x="220" y="580" as="sourcePoint" />
            <mxPoint x="220" y="80" as="targetPoint" />
          </mxGeometry>
        </mxCell>
        <mxCell id="WoJS6ypodgvgqW9EXtcD-6" value="云API2.0" style="text;html=1;strokeColor=none;fillColor=none;align=center;verticalAlign=middle;whiteSpace=wrap;rounded=0;" vertex="1" parent="WoJS6ypodgvgqW9EXtcD-1">
          <mxGeometry x="70" y="90" width="70" height="20" as="geometry" />
        </mxCell>
        <mxCell id="WoJS6ypodgvgqW9EXtcD-7" value="2.0预热" style="text;html=1;strokeColor=none;fillColor=none;align=center;verticalAlign=middle;whiteSpace=wrap;rounded=0;" vertex="1" parent="WoJS6ypodgvgqW9EXtcD-1">
          <mxGeometry x="230" y="90" width="70" height="20" as="geometry" />
        </mxCell>
        <mxCell id="WoJS6ypodgvgqW9EXtcD-8" value="" style="endArrow=none;dashed=1;html=1;dashPattern=1 3;strokeWidth=2;" edge="1" parent="WoJS6ypodgvgqW9EXtcD-1">
          <mxGeometry width="50" height="50" relative="1" as="geometry">
            <mxPoint x="510" y="400" as="sourcePoint" />
            <mxPoint x="510" y="80" as="targetPoint" />
          </mxGeometry>
        </mxCell>
        <mxCell id="WoJS6ypodgvgqW9EXtcD-9" value="4.0预热" style="text;html=1;strokeColor=none;fillColor=none;align=center;verticalAlign=middle;whiteSpace=wrap;rounded=0;" vertex="1" parent="WoJS6ypodgvgqW9EXtcD-1">
          <mxGeometry x="510" y="100" width="70" height="20" as="geometry" />
        </mxCell>
        <mxCell id="WoJS6ypodgvgqW9EXtcD-10" value="" style="endArrow=none;dashed=1;html=1;dashPattern=1 3;strokeWidth=2;" edge="1" parent="WoJS6ypodgvgqW9EXtcD-1">
          <mxGeometry width="50" height="50" relative="1" as="geometry">
            <mxPoint x="780" y="570" as="sourcePoint" />
            <mxPoint x="780" y="80" as="targetPoint" />
          </mxGeometry>
        </mxCell>
        <mxCell id="WoJS6ypodgvgqW9EXtcD-11" value="3.0预热" style="text;html=1;strokeColor=none;fillColor=none;align=center;verticalAlign=middle;whiteSpace=wrap;rounded=0;" vertex="1" parent="WoJS6ypodgvgqW9EXtcD-1">
          <mxGeometry x="780" y="100" width="70" height="20" as="geometry" />
        </mxCell>
        <mxCell id="WoJS6ypodgvgqW9EXtcD-43" style="edgeStyle=orthogonalEdgeStyle;rounded=0;orthogonalLoop=1;jettySize=auto;html=1;entryX=0;entryY=0.5;entryDx=0;entryDy=0;fillColor=#1ba1e2;strokeColor=#006EAF;" edge="1" parent="WoJS6ypodgvgqW9EXtcD-1" source="WoJS6ypodgvgqW9EXtcD-13" target="WoJS6ypodgvgqW9EXtcD-4">
          <mxGeometry relative="1" as="geometry" />
        </mxCell>
        <mxCell id="WoJS6ypodgvgqW9EXtcD-13" value="GetPushLogs" style="rounded=0;whiteSpace=wrap;html=1;" vertex="1" parent="WoJS6ypodgvgqW9EXtcD-1">
          <mxGeometry x="50" y="470" width="120" height="35" as="geometry" />
        </mxCell>
        <mxCell id="WoJS6ypodgvgqW9EXtcD-33" style="edgeStyle=orthogonalEdgeStyle;rounded=0;orthogonalLoop=1;jettySize=auto;html=1;exitX=1;exitY=0.5;exitDx=0;exitDy=0;entryX=0;entryY=0.5;entryDx=0;entryDy=0;fillColor=#d5e8d4;strokeColor=#82b366;" edge="1" parent="WoJS6ypodgvgqW9EXtcD-1" source="WoJS6ypodgvgqW9EXtcD-15" target="WoJS6ypodgvgqW9EXtcD-3">
          <mxGeometry relative="1" as="geometry" />
        </mxCell>
        <mxCell id="WoJS6ypodgvgqW9EXtcD-15" value="CdnPusher&lt;br&gt;CdnPusherV2&lt;br&gt;CdnUrlPusher&lt;br&gt;FlushOrPushOverall" style="rounded=0;whiteSpace=wrap;html=1;" vertex="1" parent="WoJS6ypodgvgqW9EXtcD-1">
          <mxGeometry x="50" y="140" width="120" height="70" as="geometry" />
        </mxCell>
        <mxCell id="WoJS6ypodgvgqW9EXtcD-42" style="edgeStyle=orthogonalEdgeStyle;rounded=0;orthogonalLoop=1;jettySize=auto;html=1;exitX=1;exitY=0.5;exitDx=0;exitDy=0;entryX=0;entryY=0.5;entryDx=0;entryDy=0;fillColor=#1ba1e2;strokeColor=#006EAF;" edge="1" parent="WoJS6ypodgvgqW9EXtcD-1" source="WoJS6ypodgvgqW9EXtcD-17" target="WoJS6ypodgvgqW9EXtcD-4">
          <mxGeometry relative="1" as="geometry" />
        </mxCell>
        <mxCell id="WoJS6ypodgvgqW9EXtcD-17" value="GetCdnPushStatus" style="rounded=0;whiteSpace=wrap;html=1;" vertex="1" parent="WoJS6ypodgvgqW9EXtcD-1">
          <mxGeometry x="50" y="420" width="120" height="35" as="geometry" />
        </mxCell>
        <mxCell id="WoJS6ypodgvgqW9EXtcD-49" style="edgeStyle=orthogonalEdgeStyle;rounded=0;orthogonalLoop=1;jettySize=auto;html=1;exitX=0.5;exitY=1;exitDx=0;exitDy=0;" edge="1" parent="WoJS6ypodgvgqW9EXtcD-1" source="WoJS6ypodgvgqW9EXtcD-18">
          <mxGeometry relative="1" as="geometry">
            <mxPoint x="930" y="190" as="targetPoint" />
            <Array as="points">
              <mxPoint x="840" y="120" />
              <mxPoint x="930" y="120" />
            </Array>
          </mxGeometry>
        </mxCell>
        <mxCell id="WoJS6ypodgvgqW9EXtcD-18" value="爱奇艺定制化预热" style="ellipse;whiteSpace=wrap;html=1;" vertex="1" parent="WoJS6ypodgvgqW9EXtcD-1">
          <mxGeometry x="780" y="2.5" width="120" height="50" as="geometry" />
        </mxCell>
        <mxCell id="WoJS6ypodgvgqW9EXtcD-38" style="edgeStyle=orthogonalEdgeStyle;rounded=0;orthogonalLoop=1;jettySize=auto;html=1;exitX=0.5;exitY=1;exitDx=0;exitDy=0;entryX=0.5;entryY=0;entryDx=0;entryDy=0;fillColor=#d5e8d4;strokeColor=#82b366;" edge="1" parent="WoJS6ypodgvgqW9EXtcD-1" source="WoJS6ypodgvgqW9EXtcD-19" target="WoJS6ypodgvgqW9EXtcD-37">
          <mxGeometry relative="1" as="geometry" />
        </mxCell>
        <mxCell id="WoJS6ypodgvgqW9EXtcD-39" value="source=oversea" style="edgeStyle=orthogonalEdgeStyle;rounded=0;orthogonalLoop=1;jettySize=auto;html=1;entryX=0;entryY=0.5;entryDx=0;entryDy=0;strokeColor=#FF0000;fontColor=#FF0000;" edge="1" parent="WoJS6ypodgvgqW9EXtcD-1" source="WoJS6ypodgvgqW9EXtcD-19" target="WoJS6ypodgvgqW9EXtcD-21">
          <mxGeometry relative="1" as="geometry" />
        </mxCell>
        <mxCell id="WoJS6ypodgvgqW9EXtcD-19" value="PushUrlsCache" style="rounded=0;whiteSpace=wrap;html=1;" vertex="1" parent="WoJS6ypodgvgqW9EXtcD-1">
          <mxGeometry x="525" y="190" width="180" height="50" as="geometry" />
        </mxCell>
        <mxCell id="WoJS6ypodgvgqW9EXtcD-71" style="edgeStyle=orthogonalEdgeStyle;shape=link;rounded=0;orthogonalLoop=1;jettySize=auto;html=1;exitX=0.75;exitY=1;exitDx=0;exitDy=0;entryX=0;entryY=0.5;entryDx=0;entryDy=0;entryPerimeter=0;fillColor=#d80073;strokeColor=#A50040;" edge="1" parent="WoJS6ypodgvgqW9EXtcD-1" source="WoJS6ypodgvgqW9EXtcD-20" target="WoJS6ypodgvgqW9EXtcD-59">
          <mxGeometry relative="1" as="geometry" />
        </mxCell>
        <mxCell id="WoJS6ypodgvgqW9EXtcD-20" value="DescribePushTasks" style="rounded=0;whiteSpace=wrap;html=1;" vertex="1" parent="WoJS6ypodgvgqW9EXtcD-1">
          <mxGeometry x="530" y="350" width="110" height="50" as="geometry" />
        </mxCell>
        <mxCell id="WoJS6ypodgvgqW9EXtcD-45" style="edgeStyle=orthogonalEdgeStyle;rounded=0;orthogonalLoop=1;jettySize=auto;html=1;entryX=0.5;entryY=0;entryDx=0;entryDy=0;" edge="1" parent="WoJS6ypodgvgqW9EXtcD-1" source="WoJS6ypodgvgqW9EXtcD-21" target="WoJS6ypodgvgqW9EXtcD-44">
          <mxGeometry relative="1" as="geometry" />
        </mxCell>
        <mxCell id="WoJS6ypodgvgqW9EXtcD-54" style="edgeStyle=orthogonalEdgeStyle;rounded=0;orthogonalLoop=1;jettySize=auto;html=1;exitX=0.5;exitY=1;exitDx=0;exitDy=0;entryX=1;entryY=0.5;entryDx=0;entryDy=0;strokeColor=#FF0000;fontColor=#FF0000;" edge="1" parent="WoJS6ypodgvgqW9EXtcD-1" source="WoJS6ypodgvgqW9EXtcD-21" target="WoJS6ypodgvgqW9EXtcD-53">
          <mxGeometry relative="1" as="geometry">
            <Array as="points">
              <mxPoint x="930" y="255" />
            </Array>
          </mxGeometry>
        </mxCell>
        <mxCell id="WoJS6ypodgvgqW9EXtcD-55" value="source=oversea" style="edgeLabel;html=1;align=center;verticalAlign=middle;resizable=0;points=[];fontColor=#FF0000;" vertex="1" connectable="0" parent="WoJS6ypodgvgqW9EXtcD-54">
          <mxGeometry x="-0.224" relative="1" as="geometry">
            <mxPoint as="offset" />
          </mxGeometry>
        </mxCell>
        <mxCell id="WoJS6ypodgvgqW9EXtcD-89" style="edgeStyle=orthogonalEdgeStyle;shape=link;rounded=0;orthogonalLoop=1;jettySize=auto;html=1;exitX=0.75;exitY=1;exitDx=0;exitDy=0;entryX=0.5;entryY=0;entryDx=0;entryDy=0;entryPerimeter=0;" edge="1" parent="WoJS6ypodgvgqW9EXtcD-1" source="WoJS6ypodgvgqW9EXtcD-21" target="WoJS6ypodgvgqW9EXtcD-88">
          <mxGeometry relative="1" as="geometry" />
        </mxCell>
        <mxCell id="WoJS6ypodgvgqW9EXtcD-21" value="PushUrlsCache" style="rounded=0;whiteSpace=wrap;html=1;" vertex="1" parent="WoJS6ypodgvgqW9EXtcD-1">
          <mxGeometry x="840" y="190" width="180" height="50" as="geometry" />
        </mxCell>
        <mxCell id="WoJS6ypodgvgqW9EXtcD-72" style="edgeStyle=orthogonalEdgeStyle;shape=link;rounded=0;orthogonalLoop=1;jettySize=auto;html=1;exitX=0.5;exitY=1;exitDx=0;exitDy=0;entryX=1;entryY=0.5;entryDx=0;entryDy=0;entryPerimeter=0;fillColor=#d80073;strokeColor=#A50040;" edge="1" parent="WoJS6ypodgvgqW9EXtcD-1" source="WoJS6ypodgvgqW9EXtcD-22" target="WoJS6ypodgvgqW9EXtcD-59">
          <mxGeometry relative="1" as="geometry" />
        </mxCell>
        <mxCell id="WoJS6ypodgvgqW9EXtcD-22" value="DescribePushTasks" style="rounded=0;whiteSpace=wrap;html=1;" vertex="1" parent="WoJS6ypodgvgqW9EXtcD-1">
          <mxGeometry x="885" y="410" width="180" height="50" as="geometry" />
        </mxCell>
        <mxCell id="WoJS6ypodgvgqW9EXtcD-34" style="edgeStyle=orthogonalEdgeStyle;rounded=0;orthogonalLoop=1;jettySize=auto;html=1;entryX=0;entryY=0.75;entryDx=0;entryDy=0;strokeColor=#FF0000;fontColor=#FF0000;" edge="1" parent="WoJS6ypodgvgqW9EXtcD-1" source="WoJS6ypodgvgqW9EXtcD-25" target="WoJS6ypodgvgqW9EXtcD-3">
          <mxGeometry relative="1" as="geometry" />
        </mxCell>
        <mxCell id="WoJS6ypodgvgqW9EXtcD-25" value="&lt;div&gt;&lt;div class=&quot;document&quot;&gt;&lt;p class=&quot;paragraph text-align-type-left pap-line-1.3 pap-line-rule-auto pap-spacing-before-0pt pap-spacing-after-0pt&quot; style=&quot;text-align: left ; line-height: 130% ; margin-top: 0px ; margin-bottom: 0px&quot;&gt;&lt;a href=&quot;https://cloud.tencent.com/document/api/228/7359&quot;&gt;&lt;span style=&quot;font-size: 10.5pt ; font-family: &amp;#34;pingfang sc&amp;#34; , &amp;#34;helvetica neue&amp;#34; , &amp;#34;arial&amp;#34; , &amp;#34;hiragino sans gb&amp;#34; , &amp;#34;microsoft yahei ui&amp;#34; , &amp;#34;microsoft yahei&amp;#34; , &amp;#34;simsun&amp;#34; , , &amp;#34;helvetica neue&amp;#34; , &amp;#34;helvetica&amp;#34; , &amp;#34;pingfang sc&amp;#34; , &amp;#34;microsoft yahei&amp;#34; , &amp;#34;source han sans sc&amp;#34; , &amp;#34;noto sans cjk sc&amp;#34; , &amp;#34;wenquanyi micro hei&amp;#34; , sans-serif ; color: rgb(0 , 164 , 255) ; background: rgb(255 , 255 , 255) ; letter-spacing: 0pt ; vertical-align: baseline&quot;&gt;CdnOverseaPushser&lt;/span&gt;&lt;/a&gt;&lt;/p&gt;&lt;/div&gt;&lt;/div&gt;" style="rounded=0;whiteSpace=wrap;html=1;" vertex="1" parent="WoJS6ypodgvgqW9EXtcD-1">
          <mxGeometry x="40" y="220" width="140" height="35" as="geometry" />
        </mxCell>
        <mxCell id="WoJS6ypodgvgqW9EXtcD-41" style="edgeStyle=orthogonalEdgeStyle;rounded=0;orthogonalLoop=1;jettySize=auto;html=1;exitX=1;exitY=0.5;exitDx=0;exitDy=0;" edge="1" parent="WoJS6ypodgvgqW9EXtcD-1" source="WoJS6ypodgvgqW9EXtcD-26" target="WoJS6ypodgvgqW9EXtcD-40">
          <mxGeometry relative="1" as="geometry" />
        </mxCell>
        <mxCell id="WoJS6ypodgvgqW9EXtcD-26" value="&lt;div class=&quot;document&quot;&gt;&lt;p class=&quot;paragraph text-align-type-left pap-line-1.3 pap-line-rule-auto pap-spacing-before-0pt pap-spacing-after-0pt&quot; style=&quot;text-align: left ; line-height: 130% ; margin-top: 0px ; margin-bottom: 0px&quot;&gt;&lt;/p&gt;&lt;div&gt;&lt;div class=&quot;document&quot;&gt;&lt;p class=&quot;paragraph text-align-type-left pap-line-1.3 pap-line-rule-auto pap-spacing-before-0pt pap-spacing-after-0pt&quot; style=&quot;text-align: left ; line-height: 130% ; margin-top: 0px ; margin-bottom: 0px&quot;&gt;&lt;a href=&quot;https://cloud.tencent.com/document/api/228/7360&quot;&gt;&lt;span style=&quot;font-size: 10.5pt ; font-family: &amp;#34;pingfang sc&amp;#34; , &amp;#34;helvetica neue&amp;#34; , &amp;#34;arial&amp;#34; , &amp;#34;hiragino sans gb&amp;#34; , &amp;#34;microsoft yahei ui&amp;#34; , &amp;#34;microsoft yahei&amp;#34; , &amp;#34;simsun&amp;#34; , , &amp;#34;helvetica neue&amp;#34; , &amp;#34;helvetica&amp;#34; , &amp;#34;pingfang sc&amp;#34; , &amp;#34;microsoft yahei&amp;#34; , &amp;#34;source han sans sc&amp;#34; , &amp;#34;noto sans cjk sc&amp;#34; , &amp;#34;wenquanyi micro hei&amp;#34; , sans-serif ; color: rgb(0 , 164 , 255) ; background: rgb(255 , 255 , 255) ; letter-spacing: 0pt ; vertical-align: baseline&quot;&gt;GetCdnOverseaPushLogs&lt;/span&gt;&lt;/a&gt;&lt;/p&gt;&lt;/div&gt;&lt;/div&gt;&lt;/div&gt;" style="rounded=0;whiteSpace=wrap;html=1;" vertex="1" parent="WoJS6ypodgvgqW9EXtcD-1">
          <mxGeometry x="40" y="380" width="170" height="30" as="geometry" />
        </mxCell>
        <mxCell id="WoJS6ypodgvgqW9EXtcD-48" style="edgeStyle=orthogonalEdgeStyle;rounded=0;orthogonalLoop=1;jettySize=auto;html=1;entryX=0.5;entryY=0;entryDx=0;entryDy=0;" edge="1" parent="WoJS6ypodgvgqW9EXtcD-1" source="WoJS6ypodgvgqW9EXtcD-28" target="WoJS6ypodgvgqW9EXtcD-21">
          <mxGeometry relative="1" as="geometry" />
        </mxCell>
        <mxCell id="WoJS6ypodgvgqW9EXtcD-28" value="ECDN预热" style="ellipse;whiteSpace=wrap;html=1;" vertex="1" parent="WoJS6ypodgvgqW9EXtcD-1">
          <mxGeometry x="920" y="2.5" width="120" height="45" as="geometry" />
        </mxCell>
        <mxCell id="WoJS6ypodgvgqW9EXtcD-115" style="edgeStyle=orthogonalEdgeStyle;shape=link;rounded=0;orthogonalLoop=1;jettySize=auto;html=1;exitX=1;exitY=1;exitDx=0;exitDy=0;entryX=0.5;entryY=0;entryDx=0;entryDy=0;entryPerimeter=0;" edge="1" parent="WoJS6ypodgvgqW9EXtcD-1" source="WoJS6ypodgvgqW9EXtcD-30" target="WoJS6ypodgvgqW9EXtcD-60">
          <mxGeometry relative="1" as="geometry">
            <Array as="points">
              <mxPoint x="490" y="170" />
            </Array>
          </mxGeometry>
        </mxCell>
        <mxCell id="WoJS6ypodgvgqW9EXtcD-30" value="Qcloud.Cdn.PushUrl" style="rounded=0;whiteSpace=wrap;html=1;" vertex="1" parent="WoJS6ypodgvgqW9EXtcD-1">
          <mxGeometry x="260" y="140" width="180" height="30" as="geometry" />
        </mxCell>
        <mxCell id="WoJS6ypodgvgqW9EXtcD-32" style="edgeStyle=orthogonalEdgeStyle;rounded=0;orthogonalLoop=1;jettySize=auto;html=1;entryX=0.75;entryY=0;entryDx=0;entryDy=0;" edge="1" parent="WoJS6ypodgvgqW9EXtcD-1" source="WoJS6ypodgvgqW9EXtcD-31" target="WoJS6ypodgvgqW9EXtcD-30">
          <mxGeometry relative="1" as="geometry">
            <Array as="points">
              <mxPoint x="395" y="70" />
              <mxPoint x="395" y="70" />
            </Array>
          </mxGeometry>
        </mxCell>
        <mxCell id="WoJS6ypodgvgqW9EXtcD-31" value="云点播预热" style="ellipse;whiteSpace=wrap;html=1;" vertex="1" parent="WoJS6ypodgvgqW9EXtcD-1">
          <mxGeometry x="350" width="100" height="50" as="geometry" />
        </mxCell>
        <mxCell id="WoJS6ypodgvgqW9EXtcD-81" style="edgeStyle=orthogonalEdgeStyle;shape=link;rounded=0;orthogonalLoop=1;jettySize=auto;html=1;exitX=1;exitY=0.5;exitDx=0;exitDy=0;entryX=0;entryY=0.5;entryDx=0;entryDy=0;entryPerimeter=0;" edge="1" parent="WoJS6ypodgvgqW9EXtcD-1" source="WoJS6ypodgvgqW9EXtcD-37" target="WoJS6ypodgvgqW9EXtcD-59">
          <mxGeometry relative="1" as="geometry">
            <Array as="points">
              <mxPoint x="650" y="290" />
              <mxPoint x="650" y="523" />
            </Array>
          </mxGeometry>
        </mxCell>
        <mxCell id="WoJS6ypodgvgqW9EXtcD-83" style="edgeStyle=orthogonalEdgeStyle;shape=link;rounded=0;orthogonalLoop=1;jettySize=auto;html=1;exitX=1;exitY=0.5;exitDx=0;exitDy=0;entryX=0;entryY=0;entryDx=0;entryDy=33.75;entryPerimeter=0;" edge="1" parent="WoJS6ypodgvgqW9EXtcD-1" source="WoJS6ypodgvgqW9EXtcD-37" target="WoJS6ypodgvgqW9EXtcD-79">
          <mxGeometry relative="1" as="geometry">
            <Array as="points">
              <mxPoint x="650" y="290" />
              <mxPoint x="650" y="461" />
            </Array>
          </mxGeometry>
        </mxCell>
        <mxCell id="WoJS6ypodgvgqW9EXtcD-121" style="edgeStyle=orthogonalEdgeStyle;rounded=0;orthogonalLoop=1;jettySize=auto;html=1;exitX=1;exitY=0.25;exitDx=0;exitDy=0;entryX=0;entryY=0.25;entryDx=0;entryDy=0;" edge="1" parent="WoJS6ypodgvgqW9EXtcD-1" source="WoJS6ypodgvgqW9EXtcD-37" target="WoJS6ypodgvgqW9EXtcD-118">
          <mxGeometry relative="1" as="geometry" />
        </mxCell>
        <mxCell id="WoJS6ypodgvgqW9EXtcD-123" style="edgeStyle=orthogonalEdgeStyle;rounded=0;orthogonalLoop=1;jettySize=auto;html=1;exitX=1;exitY=0.25;exitDx=0;exitDy=0;entryX=0;entryY=0.5;entryDx=0;entryDy=0;" edge="1" parent="WoJS6ypodgvgqW9EXtcD-1" source="WoJS6ypodgvgqW9EXtcD-37" target="WoJS6ypodgvgqW9EXtcD-119">
          <mxGeometry relative="1" as="geometry" />
        </mxCell>
        <mxCell id="WoJS6ypodgvgqW9EXtcD-37" value="4.0预热后端" style="rounded=1;whiteSpace=wrap;html=1;" vertex="1" parent="WoJS6ypodgvgqW9EXtcD-1">
          <mxGeometry x="560" y="270" width="70" height="40" as="geometry" />
        </mxCell>
        <mxCell id="WoJS6ypodgvgqW9EXtcD-66" style="edgeStyle=orthogonalEdgeStyle;rounded=0;orthogonalLoop=1;jettySize=auto;html=1;exitX=1;exitY=0.5;exitDx=0;exitDy=0;entryX=0.5;entryY=0;entryDx=0;entryDy=0;entryPerimeter=0;shape=link;" edge="1" parent="WoJS6ypodgvgqW9EXtcD-1" source="WoJS6ypodgvgqW9EXtcD-40" target="WoJS6ypodgvgqW9EXtcD-60">
          <mxGeometry relative="1" as="geometry">
            <Array as="points">
              <mxPoint x="490" y="395" />
              <mxPoint x="490" y="500" />
            </Array>
          </mxGeometry>
        </mxCell>
        <mxCell id="WoJS6ypodgvgqW9EXtcD-68" value="查任务" style="edgeLabel;html=1;align=center;verticalAlign=middle;resizable=0;points=[];" vertex="1" connectable="0" parent="WoJS6ypodgvgqW9EXtcD-66">
          <mxGeometry x="-0.2143" y="2" relative="1" as="geometry">
            <mxPoint x="-23.5" y="-36" as="offset" />
          </mxGeometry>
        </mxCell>
        <mxCell id="WoJS6ypodgvgqW9EXtcD-40" value="&lt;span style=&quot;font-family: &amp;#34;arial&amp;#34; ; font-size: 13.3333px ; text-align: left ; background-color: rgb(255 , 255 , 255)&quot;&gt;Qcloud.Oversea.GetOvPushLog&lt;/span&gt;" style="rounded=0;whiteSpace=wrap;html=1;" vertex="1" parent="WoJS6ypodgvgqW9EXtcD-1">
          <mxGeometry x="255" y="376.25" width="195" height="37.5" as="geometry" />
        </mxCell>
        <mxCell id="WoJS6ypodgvgqW9EXtcD-47" style="edgeStyle=orthogonalEdgeStyle;rounded=0;orthogonalLoop=1;jettySize=auto;html=1;exitX=0.75;exitY=0;exitDx=0;exitDy=0;entryX=1;entryY=0.5;entryDx=0;entryDy=0;" edge="1" parent="WoJS6ypodgvgqW9EXtcD-1" source="WoJS6ypodgvgqW9EXtcD-44" target="WoJS6ypodgvgqW9EXtcD-30">
          <mxGeometry relative="1" as="geometry" />
        </mxCell>
        <mxCell id="WoJS6ypodgvgqW9EXtcD-98" style="edgeStyle=orthogonalEdgeStyle;rounded=0;orthogonalLoop=1;jettySize=auto;html=1;exitX=1;exitY=0;exitDx=0;exitDy=0;entryX=1;entryY=0.5;entryDx=0;entryDy=0;" edge="1" parent="WoJS6ypodgvgqW9EXtcD-1" source="WoJS6ypodgvgqW9EXtcD-44" target="WoJS6ypodgvgqW9EXtcD-85">
          <mxGeometry relative="1" as="geometry">
            <Array as="points">
              <mxPoint x="1160" y="210" />
              <mxPoint x="1350" y="210" />
              <mxPoint x="1350" y="328" />
            </Array>
          </mxGeometry>
        </mxCell>
        <mxCell id="WoJS6ypodgvgqW9EXtcD-99" style="edgeStyle=orthogonalEdgeStyle;rounded=0;orthogonalLoop=1;jettySize=auto;html=1;exitX=1;exitY=0.25;exitDx=0;exitDy=0;entryX=1;entryY=0.5;entryDx=0;entryDy=0;" edge="1" parent="WoJS6ypodgvgqW9EXtcD-1" source="WoJS6ypodgvgqW9EXtcD-44" target="WoJS6ypodgvgqW9EXtcD-90">
          <mxGeometry relative="1" as="geometry">
            <Array as="points">
              <mxPoint x="1160" y="210" />
              <mxPoint x="1350" y="210" />
              <mxPoint x="1350" y="375" />
            </Array>
          </mxGeometry>
        </mxCell>
        <mxCell id="WoJS6ypodgvgqW9EXtcD-100" style="edgeStyle=orthogonalEdgeStyle;rounded=0;orthogonalLoop=1;jettySize=auto;html=1;exitX=1;exitY=0.5;exitDx=0;exitDy=0;entryX=1;entryY=0.5;entryDx=0;entryDy=0;" edge="1" parent="WoJS6ypodgvgqW9EXtcD-1" source="WoJS6ypodgvgqW9EXtcD-44" target="WoJS6ypodgvgqW9EXtcD-91">
          <mxGeometry relative="1" as="geometry">
            <Array as="points">
              <mxPoint x="1160" y="210" />
              <mxPoint x="1350" y="210" />
              <mxPoint x="1350" y="423" />
            </Array>
          </mxGeometry>
        </mxCell>
        <mxCell id="WoJS6ypodgvgqW9EXtcD-104" style="edgeStyle=orthogonalEdgeStyle;shape=link;rounded=0;orthogonalLoop=1;jettySize=auto;html=1;exitX=0.5;exitY=1;exitDx=0;exitDy=0;entryX=1;entryY=0.5;entryDx=0;entryDy=0;entryPerimeter=0;" edge="1" parent="WoJS6ypodgvgqW9EXtcD-1" source="WoJS6ypodgvgqW9EXtcD-44" target="WoJS6ypodgvgqW9EXtcD-88">
          <mxGeometry relative="1" as="geometry" />
        </mxCell>
        <mxCell id="WoJS6ypodgvgqW9EXtcD-44" value="3.0预热 分发" style="rounded=1;whiteSpace=wrap;html=1;" vertex="1" parent="WoJS6ypodgvgqW9EXtcD-1">
          <mxGeometry x="1040" y="255" width="120" height="45" as="geometry" />
        </mxCell>
        <mxCell id="WoJS6ypodgvgqW9EXtcD-51" style="edgeStyle=orthogonalEdgeStyle;rounded=0;orthogonalLoop=1;jettySize=auto;html=1;exitX=0.5;exitY=1;exitDx=0;exitDy=0;" edge="1" parent="WoJS6ypodgvgqW9EXtcD-1" source="WoJS6ypodgvgqW9EXtcD-50">
          <mxGeometry relative="1" as="geometry">
            <mxPoint x="930" y="190" as="targetPoint" />
          </mxGeometry>
        </mxCell>
        <mxCell id="WoJS6ypodgvgqW9EXtcD-52" value="gz.openapi-v3.cdn.tencentyun.com" style="edgeLabel;html=1;align=center;verticalAlign=middle;resizable=0;points=[];" vertex="1" connectable="0" parent="WoJS6ypodgvgqW9EXtcD-51">
          <mxGeometry x="0.6263" y="2" relative="1" as="geometry">
            <mxPoint x="38" y="-17" as="offset" />
          </mxGeometry>
        </mxCell>
        <mxCell id="WoJS6ypodgvgqW9EXtcD-50" value="主人态预热" style="ellipse;whiteSpace=wrap;html=1;" vertex="1" parent="WoJS6ypodgvgqW9EXtcD-1">
          <mxGeometry x="1060" width="120" height="45" as="geometry" />
        </mxCell>
        <mxCell id="WoJS6ypodgvgqW9EXtcD-69" value="写任务" style="edgeStyle=orthogonalEdgeStyle;shape=link;rounded=0;orthogonalLoop=1;jettySize=auto;html=1;exitX=0.75;exitY=1;exitDx=0;exitDy=0;entryX=0.5;entryY=0;entryDx=0;entryDy=0;entryPerimeter=0;" edge="1" parent="WoJS6ypodgvgqW9EXtcD-1" source="WoJS6ypodgvgqW9EXtcD-53" target="WoJS6ypodgvgqW9EXtcD-60">
          <mxGeometry x="-0.871" y="-25" relative="1" as="geometry">
            <Array as="points">
              <mxPoint x="415" y="320" />
              <mxPoint x="490" y="320" />
            </Array>
            <mxPoint as="offset" />
          </mxGeometry>
        </mxCell>
        <mxCell id="WoJS6ypodgvgqW9EXtcD-53" value="&lt;span style=&quot;font-family: &amp;#34;arial&amp;#34; ; font-size: 13.3333px ; text-align: left ; background-color: rgb(255 , 255 , 255)&quot;&gt;Qcloud.Oversea.RawPushOverseaUrl&lt;/span&gt;" style="rounded=0;whiteSpace=wrap;html=1;" vertex="1" parent="WoJS6ypodgvgqW9EXtcD-1">
          <mxGeometry x="242.5" y="240" width="230" height="30" as="geometry" />
        </mxCell>
        <mxCell id="WoJS6ypodgvgqW9EXtcD-59" value="ES" style="shape=cylinder3;whiteSpace=wrap;html=1;boundedLbl=1;backgroundOutline=1;size=15;fontColor=#FF0000;" vertex="1" parent="WoJS6ypodgvgqW9EXtcD-1">
          <mxGeometry x="705" y="495" width="60" height="55" as="geometry" />
        </mxCell>
        <mxCell id="WoJS6ypodgvgqW9EXtcD-60" value="DB" style="shape=cylinder3;whiteSpace=wrap;html=1;boundedLbl=1;backgroundOutline=1;size=15;fontColor=#FF0000;" vertex="1" parent="WoJS6ypodgvgqW9EXtcD-1">
          <mxGeometry x="460" y="505" width="60" height="60" as="geometry" />
        </mxCell>
        <mxCell id="WoJS6ypodgvgqW9EXtcD-73" value="云API3.0" style="ellipse;whiteSpace=wrap;html=1;" vertex="1" parent="WoJS6ypodgvgqW9EXtcD-1">
          <mxGeometry x="545" y="2.5" width="120" height="50" as="geometry" />
        </mxCell>
        <mxCell id="WoJS6ypodgvgqW9EXtcD-76" style="edgeStyle=orthogonalEdgeStyle;rounded=0;orthogonalLoop=1;jettySize=auto;html=1;entryX=0.443;entryY=0.084;entryDx=0;entryDy=0;entryPerimeter=0;" edge="1" parent="WoJS6ypodgvgqW9EXtcD-1" source="WoJS6ypodgvgqW9EXtcD-73" target="WoJS6ypodgvgqW9EXtcD-19">
          <mxGeometry relative="1" as="geometry">
            <mxPoint x="580" y="99.8746859276655" as="sourcePoint" />
            <mxPoint x="580" y="190" as="targetPoint" />
            <Array as="points" />
          </mxGeometry>
        </mxCell>
        <mxCell id="WoJS6ypodgvgqW9EXtcD-79" value="TDSQL_new" style="shape=cylinder3;whiteSpace=wrap;html=1;boundedLbl=1;backgroundOutline=1;size=15;fontColor=#FF0000;" vertex="1" parent="WoJS6ypodgvgqW9EXtcD-1">
          <mxGeometry x="705" y="427.5" width="75" height="55" as="geometry" />
        </mxCell>
        <mxCell id="WoJS6ypodgvgqW9EXtcD-84" style="edgeStyle=orthogonalEdgeStyle;shape=link;rounded=0;orthogonalLoop=1;jettySize=auto;html=1;exitX=0.5;exitY=1;exitDx=0;exitDy=0;" edge="1" parent="WoJS6ypodgvgqW9EXtcD-1" source="WoJS6ypodgvgqW9EXtcD-37" target="WoJS6ypodgvgqW9EXtcD-37">
          <mxGeometry relative="1" as="geometry" />
        </mxCell>
        <mxCell id="WoJS6ypodgvgqW9EXtcD-101" style="edgeStyle=orthogonalEdgeStyle;shape=link;rounded=0;orthogonalLoop=1;jettySize=auto;html=1;exitX=0;exitY=0.5;exitDx=0;exitDy=0;entryX=1;entryY=0.5;entryDx=0;entryDy=0;entryPerimeter=0;" edge="1" parent="WoJS6ypodgvgqW9EXtcD-1" source="WoJS6ypodgvgqW9EXtcD-85" target="WoJS6ypodgvgqW9EXtcD-88">
          <mxGeometry relative="1" as="geometry" />
        </mxCell>
        <mxCell id="WoJS6ypodgvgqW9EXtcD-85" value="teg_legacy" style="rounded=1;whiteSpace=wrap;html=1;" vertex="1" parent="WoJS6ypodgvgqW9EXtcD-1">
          <mxGeometry x="1210" y="310" width="110" height="35" as="geometry" />
        </mxCell>
        <mxCell id="WoJS6ypodgvgqW9EXtcD-107" style="edgeStyle=orthogonalEdgeStyle;shape=link;rounded=0;orthogonalLoop=1;jettySize=auto;html=1;exitX=0;exitY=0;exitDx=0;exitDy=33.75;exitPerimeter=0;entryX=1;entryY=0.5;entryDx=0;entryDy=0;fillColor=#008a00;strokeColor=#005700;" edge="1" parent="WoJS6ypodgvgqW9EXtcD-1" source="WoJS6ypodgvgqW9EXtcD-88" target="WoJS6ypodgvgqW9EXtcD-106">
          <mxGeometry relative="1" as="geometry" />
        </mxCell>
        <mxCell id="WoJS6ypodgvgqW9EXtcD-88" value="TDSQL_old" style="shape=cylinder3;whiteSpace=wrap;html=1;boundedLbl=1;backgroundOutline=1;size=15;fontColor=#FF0000;" vertex="1" parent="WoJS6ypodgvgqW9EXtcD-1">
          <mxGeometry x="930" y="310" width="75" height="55" as="geometry" />
        </mxCell>
        <mxCell id="WoJS6ypodgvgqW9EXtcD-102" style="edgeStyle=orthogonalEdgeStyle;shape=link;rounded=0;orthogonalLoop=1;jettySize=auto;html=1;exitX=0;exitY=0.5;exitDx=0;exitDy=0;entryX=1;entryY=0.5;entryDx=0;entryDy=0;entryPerimeter=0;" edge="1" parent="WoJS6ypodgvgqW9EXtcD-1" source="WoJS6ypodgvgqW9EXtcD-90" target="WoJS6ypodgvgqW9EXtcD-88">
          <mxGeometry relative="1" as="geometry" />
        </mxCell>
        <mxCell id="WoJS6ypodgvgqW9EXtcD-90" value="&lt;span style=&quot;font-family: &amp;#34;arial&amp;#34; ; font-size: 13.3333px ; text-align: left ; background-color: rgb(255 , 255 , 255)&quot;&gt;ECDN预热后端&lt;/span&gt;" style="rounded=1;whiteSpace=wrap;html=1;" vertex="1" parent="WoJS6ypodgvgqW9EXtcD-1">
          <mxGeometry x="1210" y="360" width="120" height="30" as="geometry" />
        </mxCell>
        <mxCell id="WoJS6ypodgvgqW9EXtcD-103" style="edgeStyle=orthogonalEdgeStyle;shape=link;rounded=0;orthogonalLoop=1;jettySize=auto;html=1;exitX=0;exitY=0.5;exitDx=0;exitDy=0;entryX=1;entryY=0.5;entryDx=0;entryDy=0;entryPerimeter=0;" edge="1" parent="WoJS6ypodgvgqW9EXtcD-1" source="WoJS6ypodgvgqW9EXtcD-91" target="WoJS6ypodgvgqW9EXtcD-88">
          <mxGeometry relative="1" as="geometry" />
        </mxCell>
        <mxCell id="WoJS6ypodgvgqW9EXtcD-91" value="&lt;span style=&quot;font-family: &amp;#34;arial&amp;#34; ; font-size: 13.3333px ; text-align: left ; background-color: rgb(255 , 255 , 255)&quot;&gt;实时预热后端&lt;/span&gt;" style="rounded=1;whiteSpace=wrap;html=1;" vertex="1" parent="WoJS6ypodgvgqW9EXtcD-1">
          <mxGeometry x="1210" y="405" width="120" height="35" as="geometry" />
        </mxCell>
        <mxCell id="WoJS6ypodgvgqW9EXtcD-108" style="edgeStyle=orthogonalEdgeStyle;shape=link;rounded=0;orthogonalLoop=1;jettySize=auto;html=1;exitX=0.25;exitY=1;exitDx=0;exitDy=0;entryX=1;entryY=0.5;entryDx=0;entryDy=0;entryPerimeter=0;fillColor=#008a00;strokeColor=#005700;" edge="1" parent="WoJS6ypodgvgqW9EXtcD-1" source="WoJS6ypodgvgqW9EXtcD-106" target="WoJS6ypodgvgqW9EXtcD-59">
          <mxGeometry relative="1" as="geometry" />
        </mxCell>
        <mxCell id="WoJS6ypodgvgqW9EXtcD-110" style="edgeStyle=orthogonalEdgeStyle;shape=link;rounded=0;orthogonalLoop=1;jettySize=auto;html=1;exitX=0.5;exitY=1;exitDx=0;exitDy=0;entryX=0.5;entryY=1;entryDx=0;entryDy=0;entryPerimeter=0;fillColor=#008a00;strokeColor=#005700;" edge="1" parent="WoJS6ypodgvgqW9EXtcD-1" source="WoJS6ypodgvgqW9EXtcD-106" target="WoJS6ypodgvgqW9EXtcD-60">
          <mxGeometry relative="1" as="geometry" />
        </mxCell>
        <mxCell id="WoJS6ypodgvgqW9EXtcD-106" value="&lt;span style=&quot;font-family: &amp;#34;arial&amp;#34; ; font-size: 13.3333px ; text-align: left ; background-color: rgb(255 , 255 , 255)&quot;&gt;状态同步ES&lt;/span&gt;" style="rounded=1;whiteSpace=wrap;html=1;" vertex="1" parent="WoJS6ypodgvgqW9EXtcD-1">
          <mxGeometry x="790" y="321" width="110" height="45" as="geometry" />
        </mxCell>
        <mxCell id="WoJS6ypodgvgqW9EXtcD-113" style="edgeStyle=orthogonalEdgeStyle;shape=link;rounded=0;orthogonalLoop=1;jettySize=auto;html=1;entryX=0.145;entryY=1;entryDx=0;entryDy=-4.35;entryPerimeter=0;" edge="1" parent="WoJS6ypodgvgqW9EXtcD-1" source="WoJS6ypodgvgqW9EXtcD-111" target="WoJS6ypodgvgqW9EXtcD-60">
          <mxGeometry relative="1" as="geometry" />
        </mxCell>
        <mxCell id="WoJS6ypodgvgqW9EXtcD-111" value="&lt;span style=&quot;font-family: &amp;#34;arial&amp;#34; ; font-size: 13.3333px ; text-align: left ; background-color: rgb(255 , 255 , 255)&quot;&gt;2.0预热 国内(中控+agent)&lt;/span&gt;" style="rounded=1;whiteSpace=wrap;html=1;" vertex="1" parent="WoJS6ypodgvgqW9EXtcD-1">
          <mxGeometry x="270" y="600" width="120" height="45" as="geometry" />
        </mxCell>
        <mxCell id="WoJS6ypodgvgqW9EXtcD-114" style="edgeStyle=orthogonalEdgeStyle;shape=link;rounded=0;orthogonalLoop=1;jettySize=auto;html=1;exitX=1;exitY=0.5;exitDx=0;exitDy=0;entryX=0.339;entryY=0.956;entryDx=0;entryDy=0;entryPerimeter=0;" edge="1" parent="WoJS6ypodgvgqW9EXtcD-1" source="WoJS6ypodgvgqW9EXtcD-112" target="WoJS6ypodgvgqW9EXtcD-60">
          <mxGeometry relative="1" as="geometry" />
        </mxCell>
        <mxCell id="WoJS6ypodgvgqW9EXtcD-112" value="&lt;span style=&quot;font-family: &amp;#34;arial&amp;#34; ; font-size: 13.3333px ; text-align: left ; background-color: rgb(255 , 255 , 255)&quot;&gt;2.0预热 海外中控&lt;/span&gt;" style="rounded=1;whiteSpace=wrap;html=1;" vertex="1" parent="WoJS6ypodgvgqW9EXtcD-1">
          <mxGeometry x="270" y="660" width="120" height="45" as="geometry" />
        </mxCell>
        <mxCell id="WoJS6ypodgvgqW9EXtcD-117" style="edgeStyle=orthogonalEdgeStyle;shape=link;rounded=0;orthogonalLoop=1;jettySize=auto;html=1;exitX=1;exitY=0.5;exitDx=0;exitDy=0;" edge="1" parent="WoJS6ypodgvgqW9EXtcD-1" source="WoJS6ypodgvgqW9EXtcD-116">
          <mxGeometry relative="1" as="geometry">
            <mxPoint x="480" y="570" as="targetPoint" />
          </mxGeometry>
        </mxCell>
        <mxCell id="WoJS6ypodgvgqW9EXtcD-116" value="&lt;span style=&quot;font-family: &amp;#34;arial&amp;#34; ; font-size: 13.3333px ; text-align: left ; background-color: rgb(255 , 255 , 255)&quot;&gt;2.0预热&amp;nbsp;&lt;/span&gt;&lt;span style=&quot;font-family: &amp;#34;arial&amp;#34; ; font-size: 13.3333px ; text-align: left ; background-color: rgb(255 , 255 , 255)&quot;&gt;海外预热IP收集&lt;/span&gt;" style="rounded=1;whiteSpace=wrap;html=1;" vertex="1" parent="WoJS6ypodgvgqW9EXtcD-1">
          <mxGeometry x="270" y="740" width="120" height="45" as="geometry" />
        </mxCell>
        <mxCell id="WoJS6ypodgvgqW9EXtcD-118" value="teg_new" style="rounded=1;whiteSpace=wrap;html=1;" vertex="1" parent="WoJS6ypodgvgqW9EXtcD-1">
          <mxGeometry x="686" y="274" width="74" height="25" as="geometry" />
        </mxCell>
        <mxCell id="WoJS6ypodgvgqW9EXtcD-119" value="cloud_new" style="rounded=1;whiteSpace=wrap;html=1;" vertex="1" parent="WoJS6ypodgvgqW9EXtcD-1">
          <mxGeometry x="687" y="310" width="83" height="25" as="geometry" />
        </mxCell>
      </root>
    </mxGraphModel>
  </diagram>
</mxfile>
